# xmcd CD database file
#
# Track frame offsets:
#	150
#	8985
#	28240
#	46232
#	66881
#	83883
#	101154
#	120014
#	123805
#	139788
#	158266
#	176348
#	191042
#	197935
#	218448
#	238305
#	255228
#
# Disc length: 3696 seconds
#
# Revision: 2
# Processed by: cddbd v1.5.1PL0 Copyright (c) Steve Scherf et al.
# Submitted via: CDex 1.51
#
DISCID=db0e6e11
DTITLE=Rascalz - Reloaded
DYEAR=2002
DGENRE=Hip-Hop
TTITLE0=Into
TTITLE1=Jungle
TTITLE2=Crazy World
TTITLE3=Stop Drop
TTITLE4=One Shot
TTITLE5=Warrior
TTITLE6=Dun Did It
TTITLE7=Cruise Control
TTITLE8=Movie Star
TTITLE9=Filthy
TTITLE10=Clash (We Don't Play)
TTITLE11=Fiyah
TTITLE12=Send Fi Dem
TTITLE13=Hit 'em Up
TTITLE14=Respect It
TTITLE15=Murderah
TTITLE16=Politricks
EXTD=YEAR: 2002
EXTT0=
EXTT1=
EXTT2=
EXTT3=
EXTT4=
EXTT5=
EXTT6=
EXTT7=
EXTT8=
EXTT9=
EXTT10=
EXTT11=
EXTT12=
EXTT13=
EXTT14=
EXTT15=
EXTT16=
PLAYORDER=
